
        <svg xmlns="http://www.w3.org/2000/svg" xmlns:xlink="http://www.w3.org/1999/xlink" version="1.1" width="3216.6064981949457" height="996.3898916967509" viewBox="0 0 3216.6064981949457 996.3898916967509">
			
			<g transform="scale(10.830324909747292) translate(10, 10)">
				<defs id="SvgjsDefs1658"/><g id="SvgjsG1659" featureKey="symbolFeature-0" transform="matrix(0.7997244872778746,0,0,0.7997244872778746,-11.620796634460241,-3.973670705350533)" fill="#000"><path xmlns="http://www.w3.org/2000/svg" style="baseline-shift:baseline;block-progression:tb;color:;direction:ltr;text-indent:0;enable-background:accumulate;text-transform:none;" d="M27.5,4.9688c-7.132,0-12.969,5.9302-12.969,13.062,0,5.736,3.777,10.611,8.969,12.313v39.281c-5.192,1.716-8.969,6.67-8.969,12.406,0,7.133,5.837,12.969,12.969,12.969s13-5.836,13-12.969c0-5.736-3.808-10.69-9-12.406v-0.625c0-5.929,1.815-8.24,5.156-10.344,3.341-2.103,8.602-3.393,14.282-4.781,5.679-1.388,11.839-2.905,16.937-6.719,4.632-3.465,7.961-9.08,8.531-16.781,5.24-1.673,9.094-6.573,9.094-12.344,0-7.132-5.868-13.062-13-13.062s-12.969,5.9302-12.969,13.062c0,5.701,3.732,10.551,8.875,12.281-0.422,5.483-2.394,8.262-5.344,10.469-3.339,2.499-8.429,3.982-14,5.344-5.57,1.362-11.559,2.572-16.656,5.781-0.306,0.193-0.61,0.382-0.906,0.594v-22.156c5.192-1.702,9-6.577,9-12.313,0-7.132-5.868-13.062-13-13.062zm0,8.0312c2.809,0,5.031,2.222,5.031,5.031s-2.222,4.938-5.031,4.938-5-2.129-5-4.938,2.191-5.031,5-5.031zm45,0c2.809,0,5.031,2.222,5.031,5.031s-2.222,4.938-5.031,4.938-5-2.129-5-4.938,2.191-5.031,5-5.031zm-45,64c2.809,0,5.031,2.222,5.031,5.031s-2.222,4.938-5.031,4.938-5-2.129-5-4.938,2.191-5.031,5-5.031z"/></g><g id="SvgjsG1660" featureKey="nameFeature-0" transform="matrix(1.3177761642490882,0,0,1.3177761642490882,73.23471905163387,-13.059422182015823)" fill="#000"><path d="M20.629 11.428999999999998 l7.4286 0 l0 28.571 l-7.4286 0 l0 -11.143 l-10.286 0 l0 11.143 l-7.4857 0 l0.057143 -28.571 l7.4286 0 l0 11.143 l10.286 0 l0 -11.143 z M54.62828571428571 11.428999999999998 l4.2857 4.2857 l0 20 l-4.2857 4.2857 l-16.571 0 l-4.2857 -4.2857 l0 -20 l4.2857 -4.2857 l16.571 0 z M51.485285714285716 33.7143 l0 -16 l-10.286 0 l0 16 l10.286 0 z M85.77142857142857 11.428999999999998 l7.4286 0 l0 28.571 l-7.4286 0 l0 -16 l-5.0286 9.7143 l-3.7143 0 l-4.9714 -9.7143 l0 16 l-7.4286 0 l0 -28.571 l7.4286 0 l6.8571 12.971 z M123.20014285714285 17.714 l-16.857 0 l0 4.8571 l14.571 0 l0 6.2857 l-14.571 0 l0 4.8571 l16.857 0 l0 6.2857 l-20 0 l-4.2857 -4.2857 l0 -24.286 l24.286 0 l0 6.2857 z M154.62814285714285 15.713999999999999 l0 10 l-4.2857 4.2857 l4.2857 6.5714 l0 3.4286 l-6.8571 0 l-5.9429 -9.7143 l-5.4857 0 l0 9.7143 l-7.4286 0 l0 -28.571 l21.429 0 z M147.20014285714285 24 l0 -6.2857 l-10.857 0 l0 6.2857 l10.857 0 z"/></g><g id="SvgjsG1661" featureKey="nameFeature-1" transform="matrix(0.754311138612038,0,0,0.754311138612038,74.84493281225829,41.37980318574912)" fill="#000"><path d="M23.714 11.428999999999998 l4.2857 4.2857 l0 20 l-4.2857 4.2857 l-20.857 0 l0 -28.571 l20.857 0 z M20.571 33.7143 l0 -16 l-10.286 0 l0 16 l10.286 0 z M58.00014285714286 17.714 l-16.857 0 l0 4.8571 l14.571 0 l0 6.2857 l-14.571 0 l0 4.8571 l16.857 0 l0 6.2857 l-20 0 l-4.2857 -4.2857 l0 -24.286 l24.286 0 l0 6.2857 z M82.28614285714286 11.428999999999998 l6.8571 0 l0 3.4286 l-9.5429 25.143 l-7.7143 0 l-9.6 -25.143 l0 -3.4286 l6.8571 0 l6.5714 18.571 z M117.71442857142857 17.714 l-16.857 0 l0 4.8571 l14.571 0 l0 6.2857 l-14.571 0 l0 4.8571 l16.857 0 l0 6.2857 l-20 0 l-4.2857 -4.2857 l0 -24.286 l24.286 0 l0 6.2857 z M123.42852857142857 35.7143 l0 -24.286 l7.4286 0 l0 22.286 l15.429 0 l0 6.2857 l-18.571 0 z M171.42828571428572 11.428999999999998 l4.2857 4.2857 l0 20 l-4.2857 4.2857 l-16.571 0 l-4.2857 -4.2857 l0 -20 l4.2857 -4.2857 l16.571 0 z M168.28528571428572 33.7143 l0 -16 l-10.286 0 l0 16 l10.286 0 z M181.4285285714286 40 l0 -28.571 l20.857 0 l4.2857 4.2857 l0 12 l-4.2857 4.2857 l-13.429 0 l0 8 l-7.4286 0 z M188.85742857142858 25.714 l10.286 0 l0 -8 l-10.286 0 l0 8 z M236.57157142857145 17.714 l-16.857 0 l0 4.8571 l14.571 0 l0 6.2857 l-14.571 0 l0 4.8571 l16.857 0 l0 6.2857 l-20 0 l-4.2857 -4.2857 l0 -24.286 l24.286 0 l0 6.2857 z M267.99957142857147 15.713999999999999 l0 10 l-4.2857 4.2857 l4.2857 6.5714 l0 3.4286 l-6.8571 0 l-5.9429 -9.7143 l-5.4857 0 l0 9.7143 l-7.4286 0 l0 -28.571 l21.429 0 z M260.5715714285715 24 l0 -6.2857 l-10.857 0 l0 6.2857 l10.857 0 z"/></g>
			</g>
		</svg>
	